<svg width="1920" height="1080" viewBox="0 0 1920 1080" fill="none" xmlns="http://www.w3.org/2000/svg">
  <!-- Melbourne skyline inspired background -->
  <defs>
    <linearGradient id="skyGradient" x1="0%" y1="0%" x2="0%" y2="100%">
      <stop offset="0%" style="stop-color:#87CEEB;stop-opacity:1" />
      <stop offset="70%" style="stop-color:#E0F6FF;stop-opacity:1" />
      <stop offset="100%" style="stop-color:#F0F8FF;stop-opacity:1" />
    </linearGradient>
    <linearGradient id="buildingGradient" x1="0%" y1="0%" x2="0%" y2="100%">
      <stop offset="0%" style="stop-color:#2D3748;stop-opacity:1" />
      <stop offset="100%" style="stop-color:#1A202C;stop-opacity:1" />
    </linearGradient>
  </defs>
  
  <!-- Sky background -->
  <rect width="1920" height="1080" fill="url(#skyGradient)"/>
  
  <!-- Melbourne skyline silhouette -->
  <g fill="url(#buildingGradient)">
    <!-- Various building shapes representing Melbourne CBD -->
    <rect x="200" y="600" width="60" height="480"/>
    <rect x="280" y="500" width="80" height="580"/>
    <rect x="380" y="650" width="50" height="430"/>
    <rect x="450" y="400" width="100" height="680"/>
    <rect x="570" y="550" width="70" height="530"/>
    <rect x="660" y="300" width="120" height="780"/>
    <rect x="800" y="450" width="90" height="630"/>
    <rect x="910" y="350" width="110" height="730"/>
    <rect x="1040" y="500" width="80" height="580"/>
    <rect x="1140" y="400" width="70" height="680"/>
    <rect x="1230" y="600" width="60" height="480"/>
    <rect x="1310" y="550" width="75" height="530"/>
    <rect x="1400" y="700" width="55" height="380"/>
    <rect x="1480" y="650" width="80" height="430"/>
    <rect x="1580" y="500" width="90" height="580"/>
  </g>
  
  <!-- Yarra River representation -->
  <ellipse cx="960" cy="950" rx="800" ry="60" fill="#4A90B8" opacity="0.7"/>
  
  <!-- Subtle overlay for text readability -->
  <rect width="1920" height="1080" fill="black" opacity="0.2"/>
</svg>
